<mxfile host="app.diagrams.net" modified="2023-03-01T09:09:44.659Z" agent="5.0 (Windows NT 10.0; Win64; x64) AppleWebKit/537.36 (KHTML, like Gecko) Chrome/109.0.0.0 Safari/537.36 OPR/95.0.0.0" etag="eLNAqEb325Qhu6PdhLZY" version="20.8.23" type="github">
  <diagram name="Страница 1" id="-wplbeOZwGjVO3PBO4Dm">
    <mxGraphModel dx="594" dy="319" grid="1" gridSize="10" guides="1" tooltips="1" connect="1" arrows="1" fold="1" page="1" pageScale="1" pageWidth="827" pageHeight="1169" math="0" shadow="0">
      <root>
        <mxCell id="0" />
        <mxCell id="1" parent="0" />
        <mxCell id="GcTC3pJcydsZxGFj_M0e-6" style="edgeStyle=orthogonalEdgeStyle;rounded=0;orthogonalLoop=1;jettySize=auto;html=1;entryX=0.587;entryY=-0.012;entryDx=0;entryDy=0;entryPerimeter=0;endArrow=none;endFill=0;dashed=1;" edge="1" parent="1" source="GcTC3pJcydsZxGFj_M0e-1" target="GcTC3pJcydsZxGFj_M0e-2">
          <mxGeometry relative="1" as="geometry" />
        </mxCell>
        <mxCell id="GcTC3pJcydsZxGFj_M0e-7" value="" style="edgeStyle=orthogonalEdgeStyle;rounded=0;orthogonalLoop=1;jettySize=auto;html=1;dashed=1;endArrow=none;endFill=0;" edge="1" parent="1" source="GcTC3pJcydsZxGFj_M0e-1" target="GcTC3pJcydsZxGFj_M0e-4">
          <mxGeometry relative="1" as="geometry" />
        </mxCell>
        <mxCell id="GcTC3pJcydsZxGFj_M0e-1" value="Редактирование расписания&amp;nbsp;" style="ellipse;whiteSpace=wrap;html=1;fillColor=none;" vertex="1" parent="1">
          <mxGeometry x="314" y="420" width="100" height="70" as="geometry" />
        </mxCell>
        <mxCell id="GcTC3pJcydsZxGFj_M0e-2" value="Интерфейс сайта" style="shape=umlBoundary;whiteSpace=wrap;html=1;" vertex="1" parent="1">
          <mxGeometry x="150" y="530" width="100" height="80" as="geometry" />
        </mxCell>
        <mxCell id="GcTC3pJcydsZxGFj_M0e-8" value="" style="edgeStyle=orthogonalEdgeStyle;rounded=0;orthogonalLoop=1;jettySize=auto;html=1;dashed=1;endArrow=none;endFill=0;" edge="1" parent="1" source="GcTC3pJcydsZxGFj_M0e-3" target="GcTC3pJcydsZxGFj_M0e-1">
          <mxGeometry relative="1" as="geometry" />
        </mxCell>
        <mxCell id="GcTC3pJcydsZxGFj_M0e-3" value="База данных спектаклей" style="ellipse;shape=umlEntity;whiteSpace=wrap;html=1;" vertex="1" parent="1">
          <mxGeometry x="385" y="530" width="80" height="80" as="geometry" />
        </mxCell>
        <mxCell id="GcTC3pJcydsZxGFj_M0e-4" value="Изменение данных" style="ellipse;shape=umlControl;whiteSpace=wrap;html=1;" vertex="1" parent="1">
          <mxGeometry x="285" y="530" width="70" height="80" as="geometry" />
        </mxCell>
        <mxCell id="GcTC3pJcydsZxGFj_M0e-9" style="edgeStyle=orthogonalEdgeStyle;rounded=0;orthogonalLoop=1;jettySize=auto;html=1;entryX=1;entryY=0.5;entryDx=0;entryDy=0;dashed=1;endArrow=none;endFill=0;" edge="1" parent="1" source="GcTC3pJcydsZxGFj_M0e-5" target="GcTC3pJcydsZxGFj_M0e-1">
          <mxGeometry relative="1" as="geometry">
            <Array as="points">
              <mxPoint x="550" y="455" />
            </Array>
          </mxGeometry>
        </mxCell>
        <mxCell id="GcTC3pJcydsZxGFj_M0e-5" value="Личный кабинет" style="shape=umlBoundary;whiteSpace=wrap;html=1;" vertex="1" parent="1">
          <mxGeometry x="490" y="530" width="100" height="80" as="geometry" />
        </mxCell>
      </root>
    </mxGraphModel>
  </diagram>
</mxfile>
